<?xml version="1.0" encoding="UTF-8"?>
<!-- Generator: visioncortex VTracer 0.6.2 -->
<svg version="1.1" xmlns="http://www.w3.org/2000/svg" width="1280" height="1269">
<path d="M0 0 C422.4 0 844.8 0 1280 0 C1280 418.77 1280 837.54 1280 1269 C857.6 1269 435.2 1269 0 1269 C0 850.23 0 431.46 0 0 Z " fill="#F9FCFE" transform="translate(0,0)"/>
<path d="M0 0 C0.98629395 -0.00078552 1.97258789 -0.00157104 2.98876953 -0.00238037 C42.84154753 0.03553624 42.84154753 0.03553624 58.5625 6.375 C60.42669774 6.83586033 62.30183335 7.25383071 64.18359375 7.63671875 C65.272771 7.86480225 66.36194824 8.09288574 67.48413086 8.32788086 C68.64436768 8.57030518 69.80460449 8.81272949 71 9.0625 C83.48284697 11.75763165 95.49214654 15.23454906 107.5625 19.375 C109.40491112 19.99490103 111.24735921 20.6146922 113.08984375 21.234375 C114.87296823 21.84207303 116.655543 22.45138704 118.4375 23.0625 C119.64104126 23.47230103 119.64104126 23.47230103 120.86889648 23.89038086 C125.30984274 25.44482935 129.42971741 27.27044571 133.60595703 29.4309082 C136.81795258 30.98079425 140.17668556 32.02347957 143.5625 33.125 C151.67918372 35.87745087 159.1652058 39.44886356 166.74169922 43.42871094 C169.44914374 44.83579795 172.19531945 46.16218011 174.9375 47.5 C180.32303344 50.1963909 185.44338404 53.20783182 190.5625 56.375 C192.14417969 57.32052734 192.14417969 57.32052734 193.7578125 58.28515625 C199.51162723 61.74946001 204.96169008 65.30558369 210.18359375 69.52734375 C213.07705567 71.77464668 216.09386492 73.82071748 219.125 75.875 C223.50945153 78.86508304 227.61916641 81.9855729 231.5390625 85.56640625 C233.97487898 87.74359357 236.5132002 89.76956797 239.0625 91.8125 C243.82224842 95.68933833 248.60976242 99.65210152 252.5625 104.375 C252.5625 105.035 252.5625 105.695 252.5625 106.375 C253.12710938 106.58640625 253.69171875 106.7978125 254.2734375 107.015625 C257.3250023 108.82781706 259.11687441 111.3156313 261.1875 114.125 C261.61772461 114.69629639 262.04794922 115.26759277 262.49121094 115.85620117 C266.06666271 120.631909 269.54846155 125.47736648 272.98681641 130.35253906 C273.36757324 130.89233398 273.74833008 131.43212891 274.140625 131.98828125 C274.52919678 132.54338379 274.91776855 133.09848633 275.31811523 133.67041016 C276.15907113 134.82237289 277.03803403 135.94738192 277.94946289 137.04443359 C282.71763693 142.89366711 285.65991346 149.48175567 288.62426758 156.35644531 C289.50240918 158.38055314 290.41124354 160.3889523 291.32226562 162.3984375 C291.89254049 163.70228888 292.4609654 165.0069513 293.02734375 166.3125 C293.539021 167.47652344 294.05069824 168.64054688 294.57788086 169.83984375 C295.93290665 174.70490038 295.82954425 179.07997645 293.3203125 183.625 C288.32785334 188.97576963 282.78146503 193.49717106 276.5625 197.375 C275.9025 197.375 275.2425 197.375 274.5625 197.375 C274.5625 198.035 274.5625 198.695 274.5625 199.375 C272.98046875 200.8203125 272.98046875 200.8203125 270.75 202.5 C269.92628906 203.12519531 269.10257813 203.75039063 268.25390625 204.39453125 C266.48124471 205.69894257 264.69752807 206.98848229 262.90234375 208.26171875 C255.34947764 213.61936335 248.23777337 219.40752205 241.875 226.16796875 C240.5625 227.375 240.5625 227.375 238.5625 227.375 C238.5625 228.035 238.5625 228.695 238.5625 229.375 C236.94392575 231.08840974 235.26704454 232.7470923 233.5625 234.375 C232.28971191 235.63993286 232.28971191 235.63993286 230.99121094 236.93041992 C230.10208008 237.81318604 229.21294922 238.69595215 228.296875 239.60546875 C226.81114072 241.08384466 225.3258768 242.5626913 223.84082031 244.04174805 C222.81565571 245.06183596 221.78960261 246.08103168 220.76269531 247.09936523 C219.27174442 248.57823117 217.7840082 250.0602651 216.296875 251.54296875 C214.96994629 252.86204224 214.96994629 252.86204224 213.61621094 254.20776367 C211.52870111 256.20042515 211.52870111 256.20042515 210.5625 258.375 C209.9025 258.375 209.2425 258.375 208.5625 258.375 C208.2325 259.365 207.9025 260.355 207.5625 261.375 C206.52416016 261.74238281 206.52416016 261.74238281 205.46484375 262.1171875 C201.1438277 263.98982164 198.38252379 267.1612817 195.125 270.5 C194.48240234 271.139375 193.83980469 271.77875 193.17773438 272.4375 C189.36341387 276.29441698 186.01400687 280.26159253 182.90209961 284.70654297 C181.5625 286.375 181.5625 286.375 178.5625 288.375 C178.22544845 290.04091871 177.89251734 291.70767356 177.5625 293.375 C176.1015625 295.48828125 176.1015625 295.48828125 174.1875 297.6875 C158.86123878 316.33490486 145.22265592 338.19831906 141.5625 362.375 C141.21862471 364.49107699 140.87347149 366.60694653 140.52734375 368.72265625 C139.98567525 372.0584214 139.45329821 375.39406332 138.95483398 378.73657227 C137.66476175 387.33546536 137.66476175 387.33546536 136.4453125 391.35546875 C135.66574674 394.02185961 135.3824481 395.83358841 135.5625 398.5625 C135.5625 402.375 135.5625 402.375 134.54296875 404.3125 C133.31967868 406.88579546 133.50838803 408.38269756 133.875 411.1875 C134.02388672 412.40373047 134.02388672 412.40373047 134.17578125 413.64453125 C134.45735124 415.632586 134.74758299 417.61941976 135.04296875 419.60546875 C135.65153225 424.02098584 136.12123355 428.44012264 136.5625 432.875 C136.65152588 433.75140137 136.74055176 434.62780273 136.83227539 435.53076172 C137.35938329 440.85421205 137.73342499 446.15761913 138 451.5 C138.30588793 456.58538685 139.14157938 460.83354874 140.80078125 465.625 C142.00950658 469.98880837 142.43162986 474.43742309 142.91577148 478.93139648 C143.23815042 481.90533314 143.61252393 484.52507178 144.5625 487.375 C144.62990865 488.93618428 144.64764456 490.5000252 144.625 492.0625 C144.61597656 492.87074219 144.60695313 493.67898438 144.59765625 494.51171875 C144.58025391 495.43404297 144.58025391 495.43404297 144.5625 496.375 C143.5725 496.705 142.5825 497.035 141.5625 497.375 C141.74425781 497.98085938 141.92601562 498.58671875 142.11328125 499.2109375 C142.6445684 500.98189468 143.1715807 502.75413751 143.6953125 504.52734375 C144.24159167 506.32120642 144.81600589 508.10696971 145.4296875 509.87890625 C147.47556876 515.948354 148.60528985 521.97513289 147.5625 528.375 C146.58760003 529.7267943 145.58909758 531.06203573 144.5625 532.375 C144.39583333 535.875 144.39583333 535.875 144.5625 539.375 C144.22916667 540.70833333 143.89583333 542.04166667 143.5625 543.375 C143.48778722 544.95780406 143.42664319 546.54127538 143.375 548.125 C142.02016304 563.27086396 134.3398676 576.8416449 122.875 586.6875 C113.12829527 593.94472133 102.22756387 598.27688835 90.5625 601.375 C89.36367188 601.71273437 88.16484375 602.05046875 86.9296875 602.3984375 C67.58115045 607.69876101 48.55485041 608.90618168 28.5625 608.375 C27.67723633 608.35953125 26.79197266 608.3440625 25.87988281 608.328125 C16.5179083 608.15455421 7.94119663 607.23010644 -1.11108398 604.81079102 C-6.14528544 603.51798149 -10.81639376 603.13823638 -16 603.0625 C-26.74298829 602.82141813 -36.5382704 599.44060168 -46.70556641 596.21777344 C-50.38176859 595.08370284 -54.08271225 594.13031793 -57.8125 593.1875 C-61.98086928 592.11404035 -65.81545865 590.86492815 -69.75 589.125 C-73.94418926 587.33731278 -77.09424837 587.27539035 -81.59375 587.49609375 C-86.51667695 587.28646362 -91.12463922 585.73222086 -95.82421875 584.34765625 C-99.4387417 583.27925401 -99.4387417 583.27925401 -103.26953125 582.93359375 C-104.31496094 582.74925781 -105.36039063 582.56492187 -106.4375 582.375 C-107.4275 580.89 -107.4275 580.89 -108.4375 579.375 C-109.0975 579.705 -109.7575 580.035 -110.4375 580.375 C-110.4375 580.705 -110.4375 581.035 -110.4375 581.375 C-123.2135833 580.67812273 -135.41130506 575.80367859 -147.3125 571.421875 C-150.03133494 570.5110653 -152.55468518 569.90136757 -155.375 569.4375 C-161.21415707 568.43374407 -166.52562802 566.084979 -171.9609375 563.81640625 C-174.52568782 562.75304348 -177.06532364 561.77603591 -179.6875 560.875 C-182.77740051 559.73880943 -185.54175747 558.24359801 -188.40625 556.625 C-194.35743767 553.35096031 -200.45831611 550.57368687 -206.6875 547.875 C-208.34036011 547.148573 -208.34036011 547.148573 -210.02661133 546.4074707 C-216.7623603 543.46309164 -216.7623603 543.46309164 -223.62109375 540.82421875 C-240.74056989 534.65968052 -255.96642613 523.24357025 -270.4375 512.375 C-271.13746094 511.87226562 -271.83742188 511.36953125 -272.55859375 510.8515625 C-280.18345518 504.97583409 -286.09754307 495.92219311 -287.4375 486.375 C-287.5625 483.375 -287.5625 483.375 -287.4375 481.375 C-288.0975 481.375 -288.7575 481.375 -289.4375 481.375 C-289.4375 480.385 -289.4375 479.395 -289.4375 478.375 C-290.0975 478.375 -290.7575 478.375 -291.4375 478.375 C-292.61979179 475.17221107 -293.78046818 471.9619918 -294.9375 468.75 C-295.43830078 467.39455078 -295.43830078 467.39455078 -295.94921875 466.01171875 C-297.6514813 461.25233163 -298.69241777 457.48928768 -298.4375 452.375 C-298.9325 451.55 -299.4275 450.725 -299.9375 449.875 C-301.77419784 446.81383693 -301.4375 444.8849638 -301.4375 441.375 C-301.9325 440.75625 -302.4275 440.1375 -302.9375 439.5 C-304.85687945 436.78087911 -304.424219 434.89059672 -304.28515625 431.66796875 C-304.65148637 426.15423073 -307.4185725 420.90339125 -310.4375 416.375 C-310.78125 414.1328125 -310.78125 414.1328125 -310.9375 411.5 C-311.71349252 400.32799719 -311.71349252 400.32799719 -314.4765625 389.546875 C-315.71293783 385.46583121 -315.77546212 381.67814953 -315.875 377.4375 C-316.17469548 368.51127573 -317.18947523 359.79673755 -318.59741211 350.97875977 C-319.32735361 346.06789226 -319.73440753 342.94241383 -317.4375 338.375 C-317.9325 336.89 -317.9325 336.89 -318.4375 335.375 C-318.6670082 328.83401639 -318.6670082 328.83401639 -317.4375 326.375 C-317.58159432 323.71954751 -317.77509273 321.08606035 -318 318.4375 C-318.46112763 312.21719651 -318.36025243 306.69151192 -316.91015625 300.57421875 C-316.29741866 298.09812273 -316.29741866 298.09812273 -316.4375 294.375 C-312.4774689 296.02580814 -309.54906807 298.75875554 -306.375 301.5625 C-300.70925794 306.4503733 -294.88340918 310.55551986 -288.4375 314.375 C-287.26101403 315.08868333 -286.08527379 315.80359697 -284.91015625 316.51953125 C-281.71739778 318.45903405 -278.50984663 320.37225022 -275.29443359 322.27392578 C-273.58369551 323.28831294 -271.87942079 324.31357945 -270.17578125 325.33984375 C-261.07856202 330.70599599 -251.62978719 335.19560598 -242.08203125 339.6953125 C-237.26320363 341.96918414 -232.49905875 344.33466113 -227.75 346.75 C-217.40347474 351.961975 -206.82311217 356.00632813 -195.88549805 359.77612305 C-189.88088179 361.84831104 -183.96061614 364.05944597 -178.06640625 366.4296875 C-175.52802334 367.34244926 -173.09283622 367.92200253 -170.4375 368.375 C-170.23447266 369.46167969 -170.23447266 369.46167969 -170.02734375 370.5703125 C-168.05796194 379.41484157 -165.17426793 382.31590978 -157.77539062 387.09423828 C-149.70806609 392.14469273 -141.44071083 396.64734367 -132.96191406 400.96704102 C-130.80480661 402.06642097 -128.65215703 403.17416849 -126.5 404.28320312 C-116.20046167 409.57299556 -105.80923517 414.4915141 -95.0625 418.8125 C-89.87372461 420.92007951 -84.75606174 423.11298969 -79.6875 425.5 C-71.34451817 429.40034401 -62.95324593 433.0776401 -53.8828125 434.8515625 C-46.84929933 436.3571388 -39.78834491 438.34385528 -33.125 441.0625 C-26.07168651 443.57300141 -20.47960269 443.92214352 -13.4375 441.375 C-12.96441406 442.08785156 -12.49132812 442.80070312 -12.00390625 443.53515625 C-6.54180901 451.44614699 -0.7899104 458.23317463 8.5625 461.375 C14.28690821 462.25884041 18.74037395 461.28276906 23.8359375 458.640625 C26.86511903 456.42013899 28.34003824 454.22400184 29.29516602 450.57885742 C30.58022768 441.37415015 30.70873185 432.44083089 30.5406189 423.16564941 C30.32755791 410.16684846 30.25431697 397.54518729 33.06201172 384.79296875 C33.66630393 381.87350042 34.14647246 378.94202699 34.62890625 376 C39.57932717 346.5810158 39.57932717 346.5810158 48.05859375 339.203125 C56.6469062 334.04785644 66.83713512 331.4710832 76.31640625 328.4140625 C99.65254735 321.88824485 99.65254735 321.88824485 116.56640625 305.8359375 C120.87757423 295.18481661 123.28721867 278.54915601 119.5625 267.375 C119.5625 265.04166667 119.5625 262.70833333 119.5625 260.375 C119.27729595 258.69942621 118.96294304 257.02682755 118.5625 255.375 C118.005625 255.313125 117.44875 255.25125 116.875 255.1875 C113.66563957 254.05988688 111.87147905 251.77697294 109.5625 249.375 C106.92368088 246.68055924 104.27449566 243.99643665 101.625 241.3125 C100.58956055 240.25192383 100.58956055 240.25192383 99.53320312 239.16992188 C93.89573246 233.47901547 88.19839785 229.55496296 81 226 C80.33291016 225.67040283 79.66582031 225.34080566 78.97851562 225.0012207 C76.50965505 223.78596026 74.03638494 222.58000005 71.5625 221.375 C70.50949707 220.8608252 69.45649414 220.34665039 68.37158203 219.81689453 C55.71030786 213.6425364 43.02843282 207.543963 30.1875 201.75 C21.33408617 197.74787237 12.71594867 193.40552852 4.13305664 188.85498047 C-3.39445479 184.87689665 -11.02439124 181.16514939 -18.72265625 177.53051758 C-25.87105128 174.14831737 -32.94232466 170.6296976 -40 167.0625 C-46.16304202 163.94898919 -52.29337463 160.92112325 -58.6875 158.3125 C-71.63982807 152.94586103 -83.71261106 145.4603276 -95.72631836 138.28173828 C-101.82365026 134.66751146 -108.05916484 131.33498092 -114.3125 128 C-121.77538794 124.01370715 -129.02902948 119.85794867 -136.125 115.25 C-142.73819071 110.96804743 -149.46698743 107.04917672 -156.4375 103.375 C-157.27369873 102.9301123 -158.10989746 102.48522461 -158.97143555 102.02685547 C-171.62486193 95.30894196 -171.62486193 95.30894196 -185.4375 95.375 C-186.159375 95.7875 -186.88125 96.2 -187.625 96.625 C-188.223125 96.8725 -188.82125 97.12 -189.4375 97.375 C-192.1875 96.125 -192.1875 96.125 -194.4375 94.375 C-194.4375 93.715 -194.4375 93.055 -194.4375 92.375 C-195.46423828 91.99214844 -195.46423828 91.99214844 -196.51171875 91.6015625 C-199.88711726 90.18650892 -203.03724038 88.50241434 -206.25 86.75 C-206.84748047 86.42515625 -207.44496094 86.1003125 -208.06054688 85.765625 C-209.52087135 84.97120849 -210.97937491 84.17344624 -212.4375 83.375 C-208.93182439 80.50041019 -205.33693145 77.88508224 -201.5703125 75.36328125 C-201.01901672 74.99383896 -200.46772095 74.62439667 -199.89971924 74.24375916 C-198.12279433 73.05508144 -196.34310109 71.87066296 -194.5625 70.6875 C-193.95158508 70.28116333 -193.34067017 69.87482666 -192.71124268 69.45617676 C-183.76046037 63.50973174 -174.7809459 57.69337989 -165.4375 52.375 C-164.53354492 51.85486328 -163.62958984 51.33472656 -162.69824219 50.79882812 C-149.84403872 43.4147612 -136.93132264 36.43141923 -123.43017578 30.3046875 C-121.47466073 29.39233743 -119.56159096 28.4198982 -117.64453125 27.4296875 C-91.82357332 14.4355894 -62.75866588 7.32274583 -34.4375 2.375 C-33.49495361 2.18953613 -32.55240723 2.00407227 -31.58129883 1.81298828 C-21.09963323 -0.0826231 -10.61585069 -0.01789039 0 0 Z " fill="#22303D" transform="translate(675.4375,304.625)"/>
<path d="M0 0 C5.63697073 4.16645662 8.44575709 9.97685688 9.6875 16.75 C9.15526316 25.23252472 2.84981857 32.56252277 -3.0625 38.125 C-9.39035231 43.53165477 -16.15368363 48.28270021 -23 53 C-32.50567442 59.55073513 -41.5965154 66.04285433 -50 74 C-51.39034614 75.21464306 -52.78595562 76.42329559 -54.1875 77.625 C-57.3405543 80.3673358 -60.28088871 83.26140519 -63.2109375 86.23828125 C-67.1484622 90.11562544 -71.35448417 93.69889446 -75.6875 97.125 C-79.47438933 100.19545081 -82.71124518 103.6283489 -85.8125 107.375 C-87.99857777 109.96922016 -90.28486703 112.18529855 -92.875 114.375 C-101.05437407 121.350145 -108.58477729 129.52120759 -112.06640625 139.7890625 C-113.19836725 142.46977349 -114.69291949 144.70803302 -116.3125 147.125 C-120.44028724 153.40376498 -123.21567538 160.0432237 -126 167 C-126.39316406 167.94617188 -126.78632812 168.89234375 -127.19140625 169.8671875 C-130.46510546 177.81587414 -132.33831777 185.32466694 -133.125 193.875 C-133.21136719 194.72191406 -133.29773438 195.56882812 -133.38671875 196.44140625 C-134.41189711 207.06746133 -133.75433495 217.3631639 -132.828125 227.97338867 C-132.62641384 230.2962187 -132.4339218 232.61968713 -132.2421875 234.94335938 C-131.603614 242.47979466 -130.7893335 249.89541428 -129.45507812 257.34692383 C-128.7526134 261.44224798 -128.33014473 265.55265874 -127.9375 269.6875 C-127.85443604 270.53328613 -127.77137207 271.37907227 -127.68579102 272.25048828 C-127.07856619 278.64038022 -126.63887366 285.03240005 -126.34155273 291.4440918 C-126.20626527 294.21385183 -126.02128056 296.8883214 -125.50170898 299.61499023 C-124.42492761 306.87998966 -124.69348231 314.3035635 -124.64990234 321.63500977 C-124.63348969 323.64684739 -124.60639932 325.65863039 -124.56787109 327.67016602 C-124.23552752 345.17022275 -126.67662732 360.78762942 -133.8125 376.875 C-134.32006836 378.04567017 -134.32006836 378.04567017 -134.83789062 379.23999023 C-139.72531924 390.21750722 -146.1843108 399.87922418 -154 409 C-154.71027344 409.84433594 -155.42054688 410.68867187 -156.15234375 411.55859375 C-160.55636943 416.64373412 -165.14483916 420.99420832 -170.4921875 425.07421875 C-172.11734744 426.32219983 -173.70945697 427.61494453 -175.2578125 428.95703125 C-193.36295364 444.51517796 -220.26081506 454.45591735 -244 455 C-244.99999023 455.02352539 -245.99998047 455.04705078 -247.03027344 455.07128906 C-255.02436951 455.21867802 -263.00654583 455.1460783 -271 455 C-271.86383301 454.99129883 -272.72766602 454.98259766 -273.61767578 454.97363281 C-284.92685548 454.8376319 -295.71257491 453.11764367 -306.81420898 451.01123047 C-315.85040744 449.31493505 -324.87804886 448.04193521 -334 446.9375 C-343.54588352 445.77287985 -352.93530736 444.38794703 -362.33520508 442.35693359 C-367.27968716 441.29818714 -372.15937193 440.57795249 -377.1875 440.0625 C-383.54786641 439.34305915 -389.27835112 437.88034784 -395.34863281 435.96166992 C-401.82661458 433.94894236 -408.36897335 432.64652456 -415.02783203 431.38378906 C-420.09107465 430.41340864 -424.96663093 429.2380469 -429.875 427.64453125 C-432.11361641 426.96553914 -434.32683213 426.49718636 -436.625 426.0625 C-441.58159487 425.12497353 -446.45116918 423.91869833 -451.33789062 422.66992188 C-455.28424175 421.66599351 -459.23628487 420.70782621 -463.20703125 419.8046875 C-472.67176823 417.64531132 -481.88395995 415.35927188 -490.94091797 411.80126953 C-493.43230475 410.83177328 -495.93689827 409.89991146 -498.44140625 408.96484375 C-507.90937347 405.38978924 -517.09429517 401.71596495 -525.91723633 396.73901367 C-529.72900717 394.60542805 -533.51386539 392.96826236 -537.625 391.5 C-543.5758587 389.33870653 -548.61020224 386.3330789 -553.92578125 382.921875 C-558.74461859 379.90933628 -563.84786215 377.51955649 -568.9609375 375.0546875 C-574.35081665 372.25383327 -578.53947335 369.04487503 -580.64599609 363.2109375 C-583.38051986 354.22452474 -584.65248964 345.4067256 -584 336 C-579.530557 334.72192298 -579.530557 334.72192298 -577.21875 335.93359375 C-576.36796875 336.67802734 -576.36796875 336.67802734 -575.5 337.4375 C-550.91907502 357.17466996 -517.73334622 367.65773349 -488.359375 378.1484375 C-486.77969811 378.71858578 -485.20662857 379.30736575 -483.640625 379.9140625 C-477.75792252 382.16118177 -471.81613825 383.90118371 -465.75 385.5625 C-458.27195152 387.61296517 -451.04598249 390.05819693 -443.79052734 392.79101562 C-419.85034225 401.75878634 -394.971643 407.01942728 -370.05661011 412.54347229 C-368.26474855 412.94123094 -366.47361779 413.34227897 -364.68261719 413.74389648 C-356.01113934 415.65116252 -347.30854277 417.22883384 -338.55175781 418.67993164 C-336.26523155 419.05996841 -333.98028604 419.44864062 -331.6953125 419.83789062 C-321.86860617 421.48949653 -312.03932138 422.78070374 -302.12438965 423.77340698 C-300.60750822 423.93520157 -299.09269432 424.11688533 -297.57971191 424.3117981 C-296.78158081 424.41265717 -295.98344971 424.51351624 -295.16113281 424.61743164 C-294.43661926 424.71391495 -293.71210571 424.81039825 -292.96563721 424.9098053 C-290.78462925 425.12786567 -290.78462925 425.12786567 -288 424 C-287.34 424.33 -286.68 424.66 -286 425 C-278.58395031 426.12148994 -271.22640011 426.1536818 -263.7355957 426.13037109 C-261.70190888 426.12503779 -259.66844553 426.13033048 -257.63476562 426.13671875 C-245.30278575 426.12466992 -233.86870879 425.44876093 -222 422 C-221.05640625 421.73445313 -220.1128125 421.46890625 -219.140625 421.1953125 C-198.05218621 414.7547893 -176.20593334 401.41229866 -165 382 C-151.56821787 356.37947985 -150.78080369 324.98045489 -156.50610352 297.03735352 C-157.78099855 290.74963654 -158.34666881 284.72278932 -158.5 278.3125 C-158.81163159 266.09097695 -160.6815093 254.16360919 -162.52880859 242.09423828 C-165.85590837 220.24570845 -163.98331747 201.31268092 -159.76074219 179.75341797 C-159.42117628 178.00591961 -159.08780456 176.25720585 -158.76074219 174.50732422 C-156.01135426 159.80994488 -152.1664202 146.33507095 -144.3125 133.4375 C-143.89315186 132.7355249 -143.47380371 132.0335498 -143.04174805 131.31030273 C-139.31612076 125.22238437 -135.04048373 119.66935828 -130.53125 114.1484375 C-128.30779853 111.42190539 -126.28561277 108.60232568 -124.3125 105.6875 C-120.92697849 100.75061779 -117.03795237 96.40722834 -113 92 C-111.85032575 90.69086311 -110.70438488 89.37843662 -109.5625 88.0625 C-108.98371094 87.40378906 -108.40492188 86.74507812 -107.80859375 86.06640625 C-106.58283023 84.66591186 -105.36693986 83.25672556 -104.16015625 81.83984375 C-95.62746339 72.02970359 -85.89922362 63.35951825 -76.29296875 54.62109375 C-75.1741269 53.6019491 -74.05562254 52.58243377 -72.9375 51.5625 C-72.13965088 50.8351062 -72.13965088 50.8351062 -71.32568359 50.09301758 C-68.3096575 47.31072156 -65.53767857 44.43240621 -62.875 41.3125 C-59.19714251 37.01259473 -55.01431069 33.62520107 -50.58984375 30.1171875 C-48.40716668 28.33285722 -46.44931941 26.52878807 -44.5 24.5 C-40.03260925 19.89531356 -35.01149978 15.99157144 -30 12 C-28.79677092 11.02877476 -27.59365012 10.05741537 -26.390625 9.0859375 C-25.15675646 8.09832526 -23.92238787 7.1113374 -22.6875 6.125 C-22.11314209 5.66061523 -21.53878418 5.19623047 -20.94702148 4.71777344 C-13.81092735 -0.93486494 -8.86866397 -3.23847361 0 0 Z " fill="#212F3C" transform="translate(987,497)"/>
<path d="M0 0 C17.27597896 0 36.02391779 15.03117625 50.20703125 23.859375 C56.42129909 27.69439365 62.76310031 31.26494332 69.17581177 34.75665283 C72.33863741 36.47894433 75.49567709 38.21176477 78.65234375 39.9453125 C79.59327126 40.46180862 79.59327126 40.46180862 80.5532074 40.98873901 C86.26362742 44.13058242 91.91761298 47.36703435 97.5625 50.625 C108.58768083 56.95989336 119.83434915 62.38581976 131.44775391 67.54589844 C137.1728144 70.11300741 142.71073275 72.89173391 148.20849609 75.90966797 C154.40730847 79.28555481 160.77835443 82.27409316 167.16064453 85.28442383 C172.57485536 87.84023393 177.96261248 90.43707592 183.3125 93.125 C183.96323486 93.45161621 184.61396973 93.77823242 185.28442383 94.11474609 C188.35737156 95.6606651 191.42467687 97.21685627 194.48828125 98.78125 C203.46300219 103.34333856 212.56049316 107.62839674 221.6875 111.875 C222.3389801 112.17829224 222.99046021 112.48158447 223.66168213 112.79406738 C229.16901275 115.35789235 234.67690329 117.92051659 240.18603516 120.48046875 C271.3260713 134.98305105 271.3260713 134.98305105 279 145 C279.94177414 145.95413338 280.89858627 146.89384595 281.875 147.8125 C284 150 284 150 285 153 C285.66 153 286.32 153 287 153 C295.27864608 167.16221216 296.04890624 177.54025354 293.046875 193.484375 C291.01155939 200.3193901 287.21682314 204.61575668 281 208 C276.40395148 210.02627846 271.71519093 211.7750245 267 213.5 C265.68527174 213.99047407 264.37081948 214.48168856 263.05664062 214.97363281 C256.58372513 217.38450675 250.0888947 219.67366764 243.5 221.75 C232.91273546 225.18404248 223.01722597 229.30640359 217.7109375 239.46875 C212.52984556 250.25511684 210.28490059 261.17746394 208.375 272.9375 C207.94859525 275.53051041 207.51773604 278.12271977 207.0859375 280.71484375 C206.9007959 281.85042725 206.7156543 282.98601074 206.52490234 284.15600586 C206 287 206 287 205 290 C204.06232391 299.55040458 203.17189651 309.45662777 204.5 319 C205.80751249 328.51262711 204.52157399 337.57167547 203 347 C199.86650268 348.04449911 199.01031744 347.93423645 196 347 C196 347.99 196 348.98 196 350 C191.25 349.25 191.25 349.25 189 347 C189.01782227 344.89501953 189.01782227 344.89501953 189.25390625 342.2578125 C189.38455703 334.61536379 186.20008858 328.61570374 182.9375 321.875 C182.33429627 320.58806191 181.73356302 319.29996311 181.13525391 318.01074219 C179.96136753 315.48226091 178.78034896 312.95733714 177.59423828 310.43457031 C175.57461024 306.08355541 173.68563484 301.69141425 171.875 297.25 C171.37742187 296.03828125 170.87984375 294.8265625 170.3671875 293.578125 C169.91601562 292.39734375 169.46484375 291.2165625 169 290 C168.60566772 289.03984985 168.60566772 289.03984985 168.20336914 288.06030273 C165.54676213 281.0588761 165.15360021 273.98599852 164.6875 266.5625 C164.58888672 265.30373047 164.49027344 264.04496094 164.38867188 262.74804688 C163.8939046 255.39557506 164.26221265 249.13218554 166 242 C166.35947796 239.50362529 166.69520904 237.00364007 167 234.5 C167.66095131 229.27055322 168.50013844 224.17568232 169.73046875 219.05078125 C170.03305523 216.74849283 169.56219465 215.23093115 169 213 C169.49914402 211.10325273 169.99941876 209.20678899 170.5078125 207.3125 C173.54233301 193.0550703 168.42387289 178.51999717 162 166 C161.5978125 165.13890625 161.195625 164.2778125 160.78125 163.390625 C156.05233355 153.3576536 149.85711958 144.58630511 142.28515625 136.5078125 C139.88243666 133.87098178 137.6995102 131.12022259 135.5 128.3125 C132.10088955 124.11221273 128.64215691 120.88747775 124.28515625 117.71875 C121.87011632 115.90230971 119.70801178 113.93730542 117.5 111.875 C106.52063911 101.89995274 94.63246915 93.38739631 81.77880859 86.02197266 C74.278392 81.71278464 66.99236146 77.4234882 60.62890625 71.51171875 C58.90298671 69.85916221 58.90298671 69.85916221 56.4375 68.0625 C54.26652284 66.22551933 52.81197105 64.52327436 51.0625 62.3125 C46.94240999 57.46215334 41.7744014 54.45675138 36.43359375 51.1484375 C19.59352554 40.71376576 6.57096466 23.73369141 0 5 C-0.15234375 2.12890625 -0.15234375 2.12890625 0 0 Z " fill="#22303D" transform="translate(493,408)"/>
<path d="M0 0 C3.29588377 -0.36952042 4.75849241 -0.14900766 7.62109375 1.6171875 C8.55050781 2.36226562 9.47992188 3.10734375 10.4375 3.875 C11.47261719 4.68839844 12.50773438 5.50179688 13.57421875 6.33984375 C14.12384277 6.77280762 14.6734668 7.20577148 15.23974609 7.65185547 C18.93404801 10.48125009 22.79073394 13.09707002 26.63061523 15.72412109 C28.12216717 16.76763872 29.5664244 17.87816347 31 19 C31 19.66 31 20.32 31 21 C31.82757813 21.36544922 31.82757813 21.36544922 32.671875 21.73828125 C35.49539913 23.26847973 37.77870632 25.13632625 40.25 27.1875 C41.2296875 27.99703125 42.209375 28.8065625 43.21875 29.640625 C45.44577289 31.52984104 47.60290799 33.45991525 49.75 35.4375 C53.92986089 39.14627001 58.54744559 42.10636715 63.21191406 45.15893555 C70.61880763 50.02028609 77.92031211 55.1017799 84.4375 61.125 C88.43844884 64.66505523 93.16202982 66.89867575 97.875 69.3515625 C100.30867474 70.63532592 102.62598114 71.95294694 104.9375 73.4375 C109.06690456 76.0890124 113.32487222 78.50565564 117.59667969 80.91772461 C120.39526292 82.5003538 123.16479932 84.10158559 125.90234375 85.7890625 C155.89476354 104.21357844 194.21680857 114.81007372 227.92919922 123.92358398 C232.08092006 125.06566931 235.96206894 126.38369006 239.91015625 128.109375 C244.32051331 129.92863134 248.16735283 130.40358465 252.89746094 130.69433594 C259.41396013 131.33634546 265.77649716 133.06513849 272.125 134.625 C272.85610992 134.80296112 273.58721985 134.98092224 274.34048462 135.16427612 C285.36059168 137.86563035 295.77200719 141.04475293 306 146 C307.2771574 146.56198853 308.55582829 147.12054926 309.8359375 147.67578125 C311.07934031 148.2395146 312.32158509 148.80581109 313.5625 149.375 C314.61566406 149.85710937 315.66882813 150.33921875 316.75390625 150.8359375 C325.99547422 156.99698281 330.68857772 166.34125823 335.5625 176 C344.61544575 193.83789986 356.64997157 208.9468983 374.4375 218.75 C379.84452644 221.73244712 384.70031817 225.05787115 386.70703125 231.14453125 C386.80371094 231.75683594 386.90039062 232.36914062 387 233 C384.95123791 235.04876209 380.80495742 234.2402146 378 234.25 C369.6086534 234.23842117 361.75787807 233.27169524 353.55078125 231.53027344 C350.68594921 230.93471302 347.81284644 230.39403028 344.9375 229.8515625 C318.82793255 224.76592943 293.76052612 216.45792326 269.02563477 206.77905273 C262.08960149 204.08691406 255.19037698 201.78014841 248 199.875 C237.95346113 197.21048741 228.66691769 193.24686153 219.20751953 188.97949219 C216.46034411 187.76055083 213.67267801 186.65978122 210.875 185.5625 C203.03497858 182.32764876 195.64164002 178.14194515 188.16943359 174.14990234 C183.49389176 171.67164418 178.74361815 169.34419422 174 167 C170.64522633 165.32657238 167.29331351 163.64742348 163.94091797 161.96923828 C160.81635259 160.40582867 157.68999391 158.84658041 154.55859375 157.296875 C149.27015836 154.67582317 144.09417052 151.97960917 139 149 C137.58392107 148.22808749 136.16720642 147.45734052 134.75 146.6875 C129.34875756 143.68985614 124.17648903 140.36716291 119 137 C117.99324219 136.35804688 116.98648438 135.71609375 115.94921875 135.0546875 C110.37732748 131.44393204 105.33364365 127.68628477 100.45703125 123.1875 C95.7822242 119.02550962 90.77775828 115.26370097 85.83496094 111.42773438 C84.03329877 110.02590889 82.23806713 108.61631909 80.4453125 107.203125 C79.86434814 106.74518555 79.28338379 106.28724609 78.68481445 105.81542969 C77.52688604 104.90228899 76.36916855 103.98888075 75.21166992 103.07519531 C72.24098355 100.73702653 69.2527487 98.42744464 66.23046875 96.15625 C65.62533447 95.69935791 65.0202002 95.24246582 64.39672852 94.77172852 C63.23856098 93.89955192 62.07642747 93.03261052 60.90991211 92.17163086 C59.57016741 91.16099782 58.27940672 90.08600803 57 89 C57 88.34 57 87.68 57 87 C56.46761719 86.7834375 55.93523437 86.566875 55.38671875 86.34375 C52.12204862 84.50570331 49.52900125 82.04657103 46.8125 79.5 C45.95084229 78.6958667 45.95084229 78.6958667 45.07177734 77.87548828 C34.53844058 67.93665669 26.38264528 57.08270135 18.87109375 44.73828125 C17.36098758 42.52829289 15.86690321 40.71558101 14.078125 38.75 C10.61061679 34.77626257 8.48683169 30.4618262 6.3125 25.6875 C5.93544922 24.89666016 5.55839844 24.10582031 5.16992188 23.29101562 C-2.17463852 7.51238762 -2.17463852 7.51238762 0 0 Z " fill="#22303D" transform="translate(155,251)"/>
<path d="M0 0 C6.46378773 2.58701481 12.63273872 5.7797555 18.8203125 8.9609375 C26.11681934 12.69817271 33.42502984 16.07094079 41.0625 19.0625 C49.54461669 22.38680914 57.80165692 26.02158431 66 30 C67.05960937 30.51401367 68.11921875 31.02802734 69.2109375 31.55761719 C69.79384048 31.84040024 70.37674347 32.12318329 70.97731018 32.41453552 C74.13029302 33.94387809 77.28381579 35.47210439 80.4375 37 C81.07591827 37.30956635 81.71433655 37.61913269 82.37210083 37.93807983 C90.68368223 41.96533548 99.026586 45.8640625 107.51953125 49.49609375 C111.23256934 51.10049292 114.90076682 52.78264996 118.5625 54.5 C119.17851074 54.78858887 119.79452148 55.07717773 120.42919922 55.37451172 C123.53944976 56.83512661 126.64435527 58.30656131 129.74609375 59.78515625 C138.37254962 63.88017042 147.09919194 67.54495515 156 71 C157.13695312 71.45503906 158.27390625 71.91007812 159.4453125 72.37890625 C160.53585937 72.81074219 161.62640625 73.24257813 162.75 73.6875 C163.69359375 74.06261719 164.6371875 74.43773437 165.609375 74.82421875 C168.44921095 75.80900057 171.23132712 76.5989689 174.13671875 77.3515625 C180.31171536 79.0010479 186.13864689 81.30728679 192.0625 83.6875 C204.1422683 88.44349978 216.37184876 92.34277058 228.81665039 96.01464844 C232.27642957 97.08556406 235.68246491 98.27851889 239.1015625 99.47265625 C247.79874976 102.44376385 256.69250986 104.29856978 265.6875 106.125 C266.52349731 106.29708984 267.35949463 106.46917969 268.2208252 106.64648438 C292.29607052 111.62018245 292.29607052 111.62018245 316.76953125 113.03125 C329.59075725 112.87069797 338.34757228 116.18811769 349 123 C350.010625 123.62132812 351.02125 124.24265625 352.0625 124.8828125 C359.81367748 129.80975776 366.64158827 135.61180136 373.49755859 141.68554688 C374.71217639 142.74818942 375.95551813 143.77794396 377.20703125 144.796875 C383.79227951 150.17598305 389.13810188 156.80025087 394.57324219 163.30126953 C395.74249132 164.69340428 396.93455327 166.06634925 398.1328125 167.43359375 C401.53535262 171.51828564 402.74339514 174.80643361 403.1875 180.1171875 C403 182 403 182 401 184 C399.02319336 184.25878906 399.02319336 184.25878906 396.58984375 184.265625 C395.68041016 184.26820313 394.77097656 184.27078125 393.83398438 184.2734375 C392.87814453 184.26570312 391.92230469 184.25796875 390.9375 184.25 C390.03966797 184.25773438 389.14183594 184.26546875 388.21679688 184.2734375 C373.28814632 184.2319978 358.33236186 181.63603002 343.625 179.25 C342.76146912 179.11015686 341.89793823 178.97031372 341.00823975 178.82623291 C315.09340672 174.55618514 289.60594409 168.08179291 264.12850952 161.76873779 C261.23965311 161.0588876 258.34731081 160.36676305 255.45239258 159.68212891 C244.1780868 156.99156549 233.33217015 153.56984602 222.4375 149.625 C220.80385945 149.0405354 219.16998619 148.45672089 217.53588867 147.87353516 C214.38672475 146.7476306 211.23970612 145.61605463 208.09472656 144.47851562 C204.83618028 143.29997553 201.5723703 142.13738435 198.3046875 140.984375 C188.17312046 137.37623393 178.30152858 133.21797899 168.41723633 128.98266602 C162.49036182 126.44908373 156.56002385 124.00837478 150.5 121.8125 C138.58735645 117.43950427 127.0790892 112.46337472 116.23828125 105.8359375 C112.18040821 103.53533397 107.98843378 101.62864556 103.75 99.6875 C94.65485286 95.46793644 86.34986955 90.52794728 78 85 C77.09588379 84.40767578 76.19176758 83.81535156 75.26025391 83.20507812 C61.92777018 74.46780286 48.79979595 65.501511 36 56 C35.40155273 55.55994629 34.80310547 55.11989258 34.18652344 54.66650391 C17.53736612 42.39399264 -3.02316092 25.74806649 -11 6 C-11.125 2.75 -11.125 2.75 -11 0 C-7.38727325 -1.80636338 -3.77381245 -0.91003379 0 0 Z " fill="#212F3C" transform="translate(228,382)"/>
<path d="M0 0 C5.91958862 0.35043965 10.73173505 3.0923635 15.9375 5.6875 C23.21751118 9.23951922 30.47155073 12.46799566 38.02734375 15.38671875 C42.9400103 17.33181621 47.70713627 19.59250158 52.5 21.8125 C73.29458674 31.39845173 94.84791746 39.01263138 116.55810547 46.22949219 C118.86631263 46.99711092 121.17343411 47.76792797 123.48046875 48.5390625 C139.28690336 53.8112068 155.15345793 58.68578984 171.21289062 63.13671875 C181.01036636 65.89276543 181.01036636 65.89276543 184.72265625 67.609375 C189.02077421 69.43312946 193.30332903 70.24513003 197.875 71.125 C208.51179296 73.25201881 219.10201989 75.55196123 229.69085693 77.9041748 C243.40244741 80.94786915 257.11062145 83.90626064 270.9230957 86.4621582 C275.86100456 87.37782118 280.70617212 88.39544946 285.5625 89.6875 C294.91261551 91.98288203 304.76603785 92.14365865 314.34375 92.75048828 C317 93 317 93 319.49829102 93.52734375 C322.25026447 94.0472833 324.72921724 94.06453013 327.52734375 93.9921875 C329.08678711 93.96705078 329.08678711 93.96705078 330.67773438 93.94140625 C332.84718026 93.89721143 335.01648052 93.84515448 337.18554688 93.78515625 C347.65701307 93.64251089 347.65701307 93.64251089 352 97 C356.96108328 103.17569332 357.06924911 110.19452821 357.75 117.875 C357.87503906 119.10347656 358.00007813 120.33195313 358.12890625 121.59765625 C359.91379147 139.89763329 359.91379147 139.89763329 357 147 C355.700625 146.979375 354.40125 146.95875 353.0625 146.9375 C351.70834367 146.91600546 350.35243917 146.92851801 349 147 C348.67 147.33 348.34 147.66 348 148 C337.00349448 148.64177137 326.30402098 147.92812844 315.44262695 146.15527344 C309.75558449 145.25671526 304.15395737 144.82638147 298.41015625 144.5703125 C289.30722376 144.14007011 280.4692259 142.87938945 271.5 141.3125 C270.7245282 141.17961578 269.9490564 141.04673157 269.15008545 140.90982056 C245.76407762 136.89394193 223.16936308 131.07729399 200.52001953 124.06640625 C196.88204463 122.96426487 193.23001602 121.92592677 189.5703125 120.8984375 C184.80849584 119.54845849 180.22394807 118.07242697 175.625 116.25 C168.76541487 113.58021088 161.81190658 111.27467222 154.8125 109 C147.16792956 106.5080809 139.9921198 103.78065122 132.78125 100.22265625 C129.93558199 98.97168141 127.28522164 98.27365624 124.25 97.625 C118.83503927 96.41765896 114.06133285 94.41030723 109.0625 92.0625 C108.34030273 91.72621582 107.61810547 91.38993164 106.87402344 91.04345703 C103.79372538 89.55659039 101.17244615 88.13930415 98.5 85.98046875 C95.22982134 83.38987409 91.73854123 81.91947361 87.9375 80.25 C80.41561074 76.82337937 73.75960414 72.7704498 67 68 C64.63449734 66.40232076 62.25418465 64.82720531 59.875 63.25 C58.60402442 62.40125464 57.33319454 61.55229106 56.0625 60.703125 C53.21659308 58.80492186 50.36092011 56.92236707 47.5 55.046875 C22.71957215 38.75892538 22.71957215 38.75892538 15.67578125 30.0546875 C13.70329413 27.63620679 11.57392322 25.39959985 9.4375 23.125 C-1.2899629 11.1668179 -1.2899629 11.1668179 -1.4375 3.9375 C-1 1 -1 1 0 0 Z " fill="#212F3C" transform="translate(293,482)"/>
<path d="M0 0 C2.31 0.33 4.62 0.66 7 1 C7 1.66 7 2.32 7 3 C7.59224365 3.27384521 8.1844873 3.54769043 8.79467773 3.82983398 C10.92117965 4.95817714 12.49105363 6.13079694 14.28515625 7.72265625 C14.89319092 8.25697266 15.50122559 8.79128906 16.12768555 9.34179688 C16.76617432 9.90962891 17.40466309 10.47746094 18.0625 11.0625 C23.51157084 15.86007316 29.02284067 20.51105134 34.73046875 25 C37.15495156 27.1365494 38.98557775 29.48095481 41 32 C42.86385272 33.51523859 42.86385272 33.51523859 44.75 34.6875 C45.8225 35.450625 46.895 36.21375 48 37 C48 37.66 48 38.32 48 39 C48.71929687 39.24621094 49.43859375 39.49242187 50.1796875 39.74609375 C53.32561179 41.14476646 55.49923458 42.84039703 58.125 45.0625 C59.08277344 45.86300781 60.04054688 46.66351563 61.02734375 47.48828125 C62.00832031 48.31714844 62.98929687 49.14601562 64 50 C65.89142754 51.58859382 67.78714455 53.17209708 69.6875 54.75 C70.51636719 55.44609375 71.34523438 56.1421875 72.19921875 56.859375 C74.99971373 58.99978121 77.86761961 60.8354926 80.86938477 62.67431641 C83.76193627 64.47408204 86.57125138 66.38759087 89.39038086 68.29956055 C121.49756558 90.03759439 157.7287881 103.77302774 194.24121094 116.2878418 C198.8961697 117.8961697 198.8961697 117.8961697 200 119 C202.20255231 119.46824728 204.41425173 119.89359876 206.62890625 120.30078125 C214.53567701 121.81866572 222.22481149 123.87084079 229.9375 126.1875 C230.58753998 126.38219879 231.23757996 126.57689758 231.90731812 126.77749634 C242.20594501 129.8862744 251.73444042 133.52062086 261 139 C261.89203125 139.47695313 262.7840625 139.95390625 263.703125 140.4453125 C272.69767909 145.65738854 276.64158906 154.96562739 281 164 C281.31533691 164.64702881 281.63067383 165.29405762 281.95556641 165.96069336 C284.12039401 170.63881797 284.12039401 170.63881797 283 174 C280.32421875 175.2890625 280.32421875 175.2890625 276.6875 176.625 C270.31240109 179.05171106 264.04096369 181.65499452 257.8125 184.4375 C256.53258179 185.00682251 256.53258179 185.00682251 255.22680664 185.58764648 C249.30400657 188.27473157 243.8808828 191.29951462 238.5078125 194.98046875 C234.64650537 196.55025249 231.91789311 194.79175803 228.18588257 193.25108337 C226.14952103 192.3804702 224.1246511 191.4869566 222.1015625 190.5859375 C221.34894135 190.25260406 220.59632019 189.91927063 219.82089233 189.57583618 C218.22844282 188.86950396 216.63662703 188.16174146 215.04541016 187.45263672 C212.66908212 186.39462664 210.28980007 185.34349565 207.91015625 184.29296875 C197.79030123 179.80538803 187.86970558 175.01073037 178 170 C176.44343783 169.2341383 174.88528478 168.4714829 173.32421875 167.71484375 C166.57456559 164.42598308 160.15400607 160.9713165 153.875 156.83203125 C150.48468671 154.67162781 147.01184973 152.70435743 143.5 150.75 C116.30026013 135.5901884 116.30026013 135.5901884 105 128 C104.37947754 127.5870166 103.75895508 127.1740332 103.11962891 126.74853516 C93.77150849 120.48924377 85.3200994 113.82831575 77.2109375 106.03515625 C73.52023232 102.49777087 69.57665975 99.31366553 65.58984375 96.1171875 C62.06372955 93.23460243 58.70355509 90.18594446 55.3359375 87.12109375 C53.22283118 85.20233667 51.08917113 83.31277068 48.9375 81.4375 C47.97070312 80.58671875 47.97070312 80.58671875 46.984375 79.71875 C45.6374937 78.5521599 44.27198448 77.40680217 42.890625 76.28125 C37.98395857 72.17496178 33.94464886 67.69844378 30 62.6875 C29.51877686 62.07640381 29.03755371 61.46530762 28.54174805 60.83569336 C26.54880498 58.24346617 25.04137519 56.12412558 24 53 C23.34 53 22.68 53 22 53 C21.56429688 52.154375 21.12859375 51.30875 20.6796875 50.4375 C16.78783131 42.91839762 16.78783131 42.91839762 11.9375 36 C5.47605517 27.78104217 -1.86293177 13.24695128 -0.59765625 2.62109375 C-0.40042969 1.75613281 -0.20320313 0.89117187 0 0 Z " fill="#22303D" transform="translate(289,141)"/>
<path d="M0 0 C3.10240397 1.69541345 6.16075672 3.46102128 9.2175293 5.23706055 C14.42291704 8.23003473 19.45270825 10.45021642 25.23095703 12.15527344 C27.7729551 12.90734387 30.17056444 13.80514535 32.62158203 14.81152344 C37.61202842 16.85888606 42.6654319 18.72281254 47.72631836 20.58666992 C52.01080458 22.18333887 56.15475556 23.95782119 60.30908203 25.87402344 C67.63995286 29.07038274 75.19833556 31.1176049 82.90942383 33.19897461 C89.19737941 34.89781285 95.41471154 36.7155653 101.61206055 38.71899414 C130.38603927 47.96952368 160.14926147 54.98436625 190.03417969 59.48583984 C192.74585345 59.91655313 195.4283641 60.43124757 198.12158203 60.96386719 C205.43628312 62.3163695 212.84136141 62.82890701 220.24658203 63.43652344 C223.08819877 63.67085031 225.92937003 63.90948613 228.77001953 64.15527344 C229.81042137 64.24526108 229.81042137 64.24526108 230.87184143 64.33706665 C235.13255432 64.72473342 239.32815145 65.28827499 243.54736328 65.99121094 C250.25352059 67.08460615 256.89955826 67.37596381 263.68408203 67.56152344 C265.4562207 67.61953125 265.4562207 67.61953125 267.26416016 67.67871094 C270.13315906 67.77163398 273.00217288 67.85748697 275.87158203 67.93652344 C279.41693994 73.57024286 279.63257197 79.1471944 280.05908203 85.68652344 C280.13731201 86.79165283 280.21554199 87.89678223 280.29614258 89.03540039 C280.74016512 95.72672813 281.09074636 102.41810479 281.18408203 109.12402344 C281.20172607 109.83461914 281.21937012 110.54521484 281.23754883 111.27734375 C281.23140749 115.88446529 280.20129819 118.98399707 277.87158203 122.93652344 C267.26720408 122.55163362 257.03452662 121.51693433 246.61132812 119.45947266 C243.37742685 118.84220153 240.13515314 118.28320641 236.89111328 117.72167969 C222.57458311 115.17859986 208.98135934 111.95319226 195.17797852 107.26757812 C180.29040438 102.27221707 164.96500248 99.10834285 149.49658203 96.49902344 C132.40118262 93.39405121 115.98257481 86.25948829 99.87158203 79.93652344 C99.07179932 79.62827637 98.2720166 79.3200293 97.44799805 79.00244141 C90.88135199 76.4378444 84.53044294 73.50225759 78.18408203 70.43652344 C77.10771484 69.91751465 76.03134766 69.39850586 74.92236328 68.86376953 C67.35581292 65.19209213 59.84071034 61.4274634 52.37158203 57.56152344 C51.44772705 57.08650391 50.52387207 56.61148438 49.57202148 56.12207031 C44.44196671 53.43809397 39.63671717 50.50810941 34.859375 47.24023438 C32.40613122 45.63125356 29.867405 44.42811864 27.18408203 43.24902344 C12.02531322 35.8526229 -4.27092966 21.44493334 -14.12841797 7.93652344 C-14.12841797 7.27652344 -14.12841797 6.61652344 -14.12841797 5.93652344 C-14.78841797 5.93652344 -15.44841797 5.93652344 -16.12841797 5.93652344 C-18.25341797 0.31152344 -18.25341797 0.31152344 -17.12841797 -3.06347656 C-11.38356149 -4.97842872 -5.27887563 -2.63762127 0 0 Z " fill="#212F3C" transform="translate(368.12841796875,571.0634765625)"/>
<path d="M0 0 C3.74806338 1.46696743 3.74806338 1.46696743 4.84375 3.78515625 C5.0603125 4.53667969 5.276875 5.28820312 5.5 6.0625 C8.64306851 14.63450504 14.56480707 21.76208072 20 29 C20.74507812 29.99386719 21.49015625 30.98773437 22.2578125 32.01171875 C24.42069127 34.76260449 26.67029925 37.38868707 29 40 C29.73017334 40.82999512 29.73017334 40.82999512 30.47509766 41.67675781 C41.76257438 54.31900613 55.2604244 63.10670953 69.80029297 71.64428711 C70.68475098 72.16385986 71.56920898 72.68343262 72.48046875 73.21875 C73.26703857 73.67314453 74.0536084 74.12753906 74.86401367 74.59570312 C88.20610212 83.36741335 98.25889579 104.06032832 101.42358398 119.01513672 C102.05387966 122.3331904 102.53967865 125.65343021 103 129 C103.24943359 130.74023438 103.24943359 130.74023438 103.50390625 132.515625 C104.34182173 139.95984256 103.62806495 145.98389901 101 153 C100.649375 153.94875 100.29875 154.8975 99.9375 155.875 C95.77579316 160.43945267 88.44282025 163.75479373 82.29199219 164.19287109 C78.77793813 164.28011439 75.26490578 164.33451417 71.75 164.375 C70.53441406 164.41238281 69.31882812 164.44976563 68.06640625 164.48828125 C60.6405181 164.56116347 56.44935857 164.20444358 51 159 C45.12901132 151.49818113 43.03307825 142.85184889 40.625 133.8125 C36.8034654 117.23750466 36.8034654 117.23750466 27 104 C26.40960937 103.50757813 25.81921875 103.01515625 25.2109375 102.5078125 C17.20330927 95.99974012 8.40589491 90.49984532 -0.24609375 84.8984375 C-9.68133177 78.73915338 -18.36765964 71.99917698 -26.1484375 63.82421875 C-28.02981959 61.8931278 -28.02981959 61.8931278 -30.51171875 60.08984375 C-33.15556761 57.86934275 -34.65020549 55.81524948 -36.4375 52.875 C-37.03175781 51.90433594 -37.62601563 50.93367187 -38.23828125 49.93359375 C-39.11033203 48.48146484 -39.11033203 48.48146484 -40 47 C-40.52980469 46.14535156 -41.05960938 45.29070313 -41.60546875 44.41015625 C-44.17003705 40.23696413 -46.62012912 36.00304467 -48.9375 31.6875 C-49.35902344 30.90761719 -49.78054688 30.12773438 -50.21484375 29.32421875 C-51.21047739 26.37694503 -50.98834444 24.93968384 -50 22 C-47.93041992 20.53027344 -47.93041992 20.53027344 -45.23046875 19.359375 C-44.25916016 18.92882812 -43.28785156 18.49828125 -42.28710938 18.0546875 C-41.26423828 17.62414062 -40.24136719 17.19359375 -39.1875 16.75 C-38.17623047 16.30398438 -37.16496094 15.85796875 -36.12304688 15.3984375 C-32.10675168 13.64645149 -28.26554586 12.01770609 -24 11 C-22.41990941 10.26589919 -20.85821148 9.49146909 -19.3125 8.6875 C-14.61113351 6.28442411 -9.84544664 4.09501195 -5 2 C-2.13066152 6.11687694 0.12293633 10.18610611 2.25 14.75 C4.91784795 20.27381803 7.97841717 24.89064427 11.9765625 29.578125 C14.08750553 32.10473634 15.93933363 34.73096573 17.8125 37.4375 C28.10753847 51.62310534 41.77615334 61.54708718 56.8125 70.1875 C76.14029699 81.34130342 89.74896478 97.53197341 95.97021484 119.20874023 C97.86817654 126.5215779 98.4712069 133.46068967 98 141 C98.01417969 141.969375 98.02835938 142.93875 98.04296875 143.9375 C97.98263885 147.97411866 97.80926682 150.85976121 95.43359375 154.20703125 C90.9028984 158.56039997 87.22045002 159.88892054 81 160 C81 160.33 81 160.66 81 161 C77.9570141 160.91262714 74.91681634 160.80569374 71.875 160.6875 C70.59109375 160.65366211 70.59109375 160.65366211 69.28125 160.61914062 C64.07625417 160.39892926 60.61456267 159.61585391 56 157 C55.01 157 54.02 157 53 157 C59.58150264 161.88967507 65.94318392 161.65777401 73.9375 161.75 C75.19369141 161.77964844 76.44988281 161.80929687 77.74414062 161.83984375 C80.82949054 161.91023196 83.91409823 161.96308502 87 162 C87.33 161.34 87.66 160.68 88 160 C88.66 160 89.32 160 90 160 C90.45375 159.54625 90.9075 159.0925 91.375 158.625 C93 157 93 157 95 156.1875 C98.02648762 154.39052298 98.75631066 152.23359229 100 149 C100.16757757 145.79129767 100.16757757 145.79129767 100 143 C100.33 142.67 100.66 142.34 101 142 C99.55469686 119.98038159 93.26472362 101.20537189 79 84 C78.48308594 83.35675781 77.96617187 82.71351563 77.43359375 82.05078125 C72.15205127 76.13490208 64.93002016 72.41730714 58.21875 68.35009766 C43.18417291 59.20163691 30.89080738 50.05025662 20 36 C19.15427887 34.93179017 18.30790709 33.86409521 17.4609375 32.796875 C-0.8670015 9.53701653 -0.8670015 9.53701653 0 0 Z " fill="#23313E" transform="translate(821,932)"/>
<path d="M0 0 C5.13056235 3.81503354 8.83435199 8.34628033 12.80859375 13.3359375 C14.63740696 15.55920062 16.4893961 17.57271234 18.5625 19.5625 C19.366875 20.366875 20.17125 21.17125 21 22 C21 22.66 21 23.32 21 24 C21.70511719 24.24105469 22.41023437 24.48210938 23.13671875 24.73046875 C26.45478153 26.20164256 28.93324564 28.0996391 31.8125 30.3125 C40.95922641 37.11287016 51.10151474 42.16640721 61.17041016 47.44458008 C64.80650626 49.44333489 68.27360974 51.67325175 71.72509766 53.97436523 C74.5501414 55.24803005 76.13663799 54.9681085 79.125 54.3125 C81.59765625 53.84765625 81.59765625 53.84765625 84 54 C88.18090186 57.18905694 91.33305053 60.9991516 93 66 C91.8125 68.625 91.8125 68.625 90 71 C87.8125 71.8125 87.8125 71.8125 86 72 C86.79117904 73.99983534 86.79117904 73.99983534 88 76 C89.485 76.495 89.485 76.495 91 77 C91 76.01 91 75.02 91 74 C95.03085143 77.62162794 97.07440647 80.78965647 99.0625 85.8125 C100.65393747 89.76567382 102.25970034 93.633847 104.3125 97.375 C105.85862644 100.69630866 106.36440467 103.13862295 106.66796875 106.74609375 C107.54225322 112.68094243 110.01266222 118.42622794 112.15234375 124.00390625 C115.9606699 133.9651864 115.9606699 133.9651864 115 138 C110.73446625 142.59365173 105.74852243 144.70917091 100 147 C98.97132813 147.43699219 97.94265625 147.87398437 96.8828125 148.32421875 C83.55231079 153.79756592 83.55231079 153.79756592 77 153 C70.95796239 148.92819205 68.51794876 141.14235785 65.52734375 134.6953125 C65.10259766 133.78265625 64.67785156 132.87 64.24023438 131.9296875 C63.36209307 130.03911642 62.48981443 128.14581254 61.62304688 126.25 C61.19958984 125.34507812 60.77613281 124.44015625 60.33984375 123.5078125 C59.77317993 122.28022217 59.77317993 122.28022217 59.19506836 121.02783203 C58.02130759 118.69989778 58.02130759 118.69989778 55 117 C54.05078125 115.125 54.05078125 115.125 53.3125 113 C53.06113281 112.29875 52.80976562 111.5975 52.55078125 110.875 C52 109 52 109 52 107 C51.443125 107.515625 50.88625 108.03125 50.3125 108.5625 C48 110 48 110 45.75 110.0625 C41.55710688 108.44251857 38.04747007 106.33940062 35 103 C34.03579436 100.14328434 34 98.06550343 34 95 C32.7625 94.649375 31.525 94.29875 30.25 93.9375 C20.85938961 90.80236708 12.72567475 85.06318778 5 79 C3.70877798 78.06188768 2.4171007 77.1244017 1.125 76.1875 C-7.43441002 69.7259846 -14.60846722 62.61020277 -21 54 C-21.46792969 53.40960937 -21.93585937 52.81921875 -22.41796875 52.2109375 C-24.16646255 49.8835908 -25.06323072 48.58153098 -24.7421875 45.62890625 C-23.97192964 42.90057184 -22.95601491 40.71449521 -21.5625 38.25 C-21.13066406 37.47140625 -20.69882812 36.6928125 -20.25390625 35.890625 C-19 34 -19 34 -17 33 C-16.2820543 31.08059414 -15.56842879 29.15939072 -14.88330078 27.22802734 C-13.47397005 23.67314834 -11.47336161 20.53733136 -9.4375 17.3125 C-6.92402514 13.29662498 -4.58961469 9.4938837 -3 5 C0.6658428 6.2219476 1.48711882 7.58870347 3.8125 10.625 C4.52148438 11.53121094 5.23046875 12.43742188 5.9609375 13.37109375 C6.97027344 14.67240234 6.97027344 14.67240234 8 16 C11.69960972 20.74188556 15.57704701 24.46083752 20.40625 28.05859375 C22.2675073 29.45173363 24.09771307 30.8867279 25.90625 32.34765625 C38.14778903 42.21414393 51.90994152 49.15311221 66 56 C65.67 55.01 65.34 54.02 65 53 C62.90280128 51.97718482 62.90280128 51.97718482 60.4375 51.3125 C59.61121094 51.06113281 58.78492188 50.80976562 57.93359375 50.55078125 C57.29550781 50.36902344 56.65742187 50.18726563 56 50 C56 49.34 56 48.68 56 48 C55.236875 48.061875 54.47375 48.12375 53.6875 48.1875 C50.36770532 47.95588642 50.2691615 47.28481089 48 45 C46.06328726 43.77755595 44.10133538 42.59479174 42.125 41.4375 C28.90610415 33.5084071 16.96919303 23.75632699 7 12 C5.52487622 10.32975402 4.04570871 8.66307057 2.5625 7 C1.88316406 6.236875 1.20382812 5.47375 0.50390625 4.6875 C0.00761719 4.130625 -0.48867188 3.57375 -1 3 C-0.67 2.01 -0.34 1.02 0 0 Z " fill="#23313E" transform="translate(864,869)"/>
<path d="M0 0 C4.43010183 0.31928662 7.5196095 1.69692024 11.33984375 3.78125 C12.76283556 4.52509413 14.18601778 5.26857409 15.609375 6.01171875 C16.32689941 6.39247559 17.04442383 6.77323242 17.78369141 7.16552734 C21.00507361 8.86196853 24.26604912 10.47580794 27.52734375 12.09375 C28.86083347 12.7614065 30.19416132 13.42938637 31.52734375 14.09765625 C34.68862531 15.67902611 37.85665256 17.24618157 41.02734375 18.80859375 C50.06483652 23.27486752 59.01994893 27.83559584 67.83984375 32.71875 C78.31771517 38.50819799 88.94174502 44.00056811 99.58984375 49.46875 C100.40452118 49.88841034 101.21919861 50.30807068 102.05856323 50.740448 C119.85096294 59.89933202 137.74363188 68.67026214 156.46484375 75.78125 C162.39680567 78.03797465 168.16177111 80.57777391 173.90234375 83.28125 C173.90234375 83.94125 173.90234375 84.60125 173.90234375 85.28125 C174.56234375 85.61125 175.22234375 85.94125 175.90234375 86.28125 C166.70268544 92.05923703 157.47576292 97.78849675 148.19580078 103.43676758 C147.49052246 103.86626709 146.78524414 104.2957666 146.05859375 104.73828125 C145.02605469 105.36017334 145.02605469 105.36017334 143.97265625 105.99462891 C142.54955725 106.87903123 141.14905208 107.80051768 139.76953125 108.75146484 C134.56858007 112.28329054 134.56858007 112.28329054 131.3515625 112.2734375 C130.54332031 111.94601562 129.73507812 111.61859375 128.90234375 111.28125 C127.79503906 110.87132812 126.68773437 110.46140625 125.546875 110.0390625 C115.40770113 105.80885527 106.2806589 100.42780251 97.00390625 94.57861328 C93.98040826 92.71210906 90.88635569 91.00180547 87.77734375 89.28125 C74.70614231 81.87222799 62.69864422 72.80056998 50.76904297 63.70263672 C49.01774264 62.36911978 47.25990735 61.04478084 45.5 59.72265625 C26.7978791 45.60345303 4.77631037 28.79082386 -4.09765625 6.28125 C-4.30859375 3.53125 -4.30859375 3.53125 -4.09765625 1.28125 C-3.09765625 0.28125 -3.09765625 0.28125 0 0 Z " fill="#212F3C" transform="translate(340.09765625,254.71875)"/>
<path d="M0 0 C7.92928024 0.66935483 15.50771255 2.32004955 23.25 4.125 C24.46429687 4.39570312 25.67859375 4.66640625 26.9296875 4.9453125 C34.44261831 6.68744138 41.6415516 8.866904 48.921875 11.41015625 C59.70032303 15.12971043 70.60987567 17.52898467 81.79296875 19.69067383 C85.00128734 20.31274961 88.20365509 20.96049554 91.40625 21.61132812 C103.65520936 24.08611227 103.65520936 24.08611227 116.0625 25.45458984 C117.02188477 25.51664108 117.98126953 25.57869232 118.96972656 25.6426239 C120.76695342 25.73980995 122.56649137 25.80289774 124.36621094 25.82478333 C130.1672183 26.11418548 130.1672183 26.11418548 132.61833191 28.72138977 C133.9262839 30.77047456 134.99873966 32.78643054 136 35 C136.48471268 36.03278831 136.48471268 36.03278831 136.97921753 37.08644104 C137.8359828 38.97200251 138.58773501 40.87252575 139.3125 42.8125 C139.7003064 43.84419312 139.7003064 43.84419312 140.09594727 44.89672852 C142.10202899 50.57742777 142.9572782 55.97762958 142 62 C141 63 141 63 137.8125 63.375 C131.18089983 63.31536331 125.0998824 60.34448875 119 58 C114.39153731 56.32034591 109.96489413 54.95187847 105.125 54.125 C100.3048883 53.22633511 96.27561189 51.4496175 91.87109375 49.3359375 C89.03359369 48.01563135 86.18398483 46.89973222 83.25 45.8125 C67.43230541 39.81723554 51.99134132 32.82790351 37 25 C36.2157666 24.59217285 35.4315332 24.1843457 34.62353516 23.76416016 C9.53964089 10.70257973 9.53964089 10.70257973 3.9375 6.375 C3.18339844 5.80523438 2.42929687 5.23546875 1.65234375 4.6484375 C1.10707031 4.10445312 0.56179688 3.56046875 0 3 C0 2.01 0 1.02 0 0 Z " fill="#212F3C" transform="translate(515,676)"/>
<path d="M0 0 C4.03085143 3.62162794 6.07440647 6.78965647 8.0625 11.8125 C9.65393747 15.76567382 11.25970034 19.633847 13.3125 23.375 C14.85862644 26.69630866 15.36440467 29.13862295 15.66796875 32.74609375 C16.54225322 38.68094243 19.01266222 44.42622794 21.15234375 50.00390625 C24.9606699 59.9651864 24.9606699 59.9651864 24 64 C19.73446625 68.59365173 14.74852243 70.70917091 9 73 C7.97132813 73.43699219 6.94265625 73.87398437 5.8828125 74.32421875 C-7.44768921 79.79756592 -7.44768921 79.79756592 -14 79 C-20.04203761 74.92819205 -22.48205124 67.14235785 -25.47265625 60.6953125 C-25.89740234 59.78265625 -26.32214844 58.87 -26.75976562 57.9296875 C-27.63790693 56.03911642 -28.51018557 54.14581254 -29.37695312 52.25 C-29.80041016 51.34507812 -30.22386719 50.44015625 -30.66015625 49.5078125 C-31.03793213 48.68941895 -31.41570801 47.87102539 -31.80493164 47.02783203 C-32.97869241 44.69989778 -32.97869241 44.69989778 -36 43 C-36.94921875 41.0546875 -36.94921875 41.0546875 -37.6875 38.875 C-37.93886719 38.15054688 -38.19023438 37.42609375 -38.44921875 36.6796875 C-38.63097656 36.12539063 -38.81273437 35.57109375 -39 35 C-38.58637207 34.5968457 -38.17274414 34.19369141 -37.74658203 33.77832031 C-35.86743654 31.94086325 -33.99618964 30.0955569 -32.125 28.25 C-31.47402344 27.61578125 -30.82304688 26.9815625 -30.15234375 26.328125 C-29.52714844 25.709375 -28.90195312 25.090625 -28.2578125 24.453125 C-27.6817627 23.88754883 -27.10571289 23.32197266 -26.51220703 22.73925781 C-24.93049381 20.92005778 -24.06210614 19.15138368 -23 17 C-21.0772666 15.06885814 -19.15752902 13.2433801 -17.125 11.4375 C-16.59519531 10.95603516 -16.06539062 10.47457031 -15.51953125 9.97851562 C-7.10979793 2.39306138 -7.10979793 2.39306138 -2 2 C-1.01 2.66 -0.02 3.32 1 4 C0.505 2.02 0.505 2.02 0 0 Z " fill="#273541" transform="translate(955,943)"/>
<path d="M0 0 C1 3 1 3 -0.15234375 5.7578125 C-0.74144531 6.86898437 -1.33054687 7.98015625 -1.9375 9.125 C-2.59560639 10.39226685 -3.25177651 11.66054065 -3.90625 12.9296875 C-4.25171875 13.59581055 -4.5971875 14.26193359 -4.953125 14.94824219 C-6.68765939 18.34773543 -8.31663447 21.79517669 -9.9375 25.25 C-10.26484131 25.94681885 -10.59218262 26.6436377 -10.92944336 27.36157227 C-14.7397494 35.52042597 -18.37520925 43.75745721 -22 52 C-17.07004474 52.10183383 -13.01741099 51.66176859 -8.30859375 50.33984375 C-5.36840393 49.90702393 -2.89387517 50.40627812 0 51 C-7.06572146 62.51911632 -14.93620982 73.49188921 -22.9375 84.375 C-27.76731577 90.97305376 -32.3311571 97.75436058 -36.93359375 104.51171875 C-39.79009558 108.70282283 -42.69052803 112.86079325 -45.6328125 116.9921875 C-47.18662344 119.27406985 -48.59946018 121.62156847 -50 124 C-51 122 -51 122 -50.1875 119 C-49 116 -49 116 -47 114 C-46.61714844 112.78441406 -46.23429688 111.56882812 -45.83984375 110.31640625 C-43.56237903 103.16948462 -39.9586343 96.60080147 -36.5625 89.9375 C-35.88680474 88.60119703 -35.21167071 87.26461011 -34.53710938 85.92773438 C-33.257102 83.39281781 -31.97414243 80.85943991 -30.68798828 78.32763672 C-28.77647512 74.55935145 -26.88385698 70.7821681 -25 67 C-28.21717892 65.92760703 -29.05283612 66.06390515 -32.1875 66.9375 C-33.445625 67.288125 -34.70375 67.63875 -36 68 C-36 68.99 -36 69.98 -36 71 C-38.97 70.67 -41.94 70.34 -45 70 C-45 65.70385025 -42.69146979 62.94102768 -40.4375 59.4375 C-39.98076904 58.71731689 -39.52403809 57.99713379 -39.0534668 57.25512695 C-36.03258275 52.52182471 -32.88817222 47.89417058 -29.625 43.32421875 C-27.9467298 40.92380824 -26.37251301 38.47877067 -24.8125 36 C-20.18558256 28.65136642 -15.3355916 21.45052229 -10.49560547 14.24121094 C-9.45522484 12.68216847 -8.42362537 11.11724508 -7.39892578 9.54785156 C-6.87669434 8.75088867 -6.35446289 7.95392578 -5.81640625 7.1328125 C-5.3479126 6.4123877 -4.87941895 5.69196289 -4.39672852 4.94970703 C-3.06602273 3.09216177 -1.66356364 1.56018526 0 0 Z " fill="#F7FAFC" transform="translate(793,632)"/>
<path d="M0 0 C4.17152279 0.53993787 7.35512973 1.45162857 11.0546875 3.44140625 C11.99111084 3.93866211 12.92753418 4.43591797 13.89233398 4.94824219 C14.87661377 5.48094727 15.86089355 6.01365234 16.875 6.5625 C18.94605953 7.66380486 21.01767635 8.76406234 23.08984375 9.86328125 C24.10030762 10.40162598 25.11077148 10.9399707 26.15185547 11.49462891 C29.88678341 13.46870448 33.6526018 15.37391907 37.4375 17.25 C38.05802246 17.5581665 38.67854492 17.86633301 39.31787109 18.18383789 C40.55911255 18.79958591 41.80064807 19.41474152 43.04248047 20.02929688 C46.69992522 21.84296616 50.34928975 23.67282417 54 25.5 C55.35413557 26.17714551 56.70829918 26.85423498 58.0625 27.53125 C59.5165625 28.25828125 59.5165625 28.25828125 61 29 C61 29.66 61 30.32 61 31 C61.66 31 62.32 31 63 31 C63 33 63 33 61.59375 34.6484375 C57.91274365 37.68389423 55.43634289 39.13609185 50.578125 38.67578125 C47.13405175 37.78664805 43.77075759 36.777403 40.38476562 35.6953125 C37.79959725 34.94156972 35.21689933 34.37931519 32.578125 33.84375 C31.19028809 33.55431519 31.19028809 33.55431519 29.77441406 33.2590332 C27.97222328 32.88777936 26.16690801 32.531276 24.35839844 32.19213867 C14.44119118 30.02857457 8.92903299 23.65082785 3.48046875 15.421875 C-1.16558781 7.82146586 -1.16558781 7.82146586 -0.6875 2.5625 C-0.460625 1.716875 -0.23375 0.87125 0 0 Z " fill="#212F3C" transform="translate(397,344)"/>
<path d="M0 0 C4.26050469 3.56001631 6.07006771 7.84306177 8.25 12.8125 C8.61351562 13.59431641 8.97703125 14.37613281 9.3515625 15.18164062 C11.44863346 19.90005029 12.80120984 23.74690647 12 29 C8.35141363 33.96992022 2.51744587 35.69979057 -3 38 C-3.76570312 38.33644531 -4.53140625 38.67289063 -5.3203125 39.01953125 C-8.16950352 40.20579139 -10.58603481 41 -13.6875 41 C-19.82681411 38.34516147 -22.54781612 32.85799483 -25 27 C-26.87859178 22.19112617 -28.18252218 18.21100837 -28 13 C-26.38007835 12.13624104 -24.75388139 11.28424146 -23.125 10.4375 C-21.76761719 9.72400391 -21.76761719 9.72400391 -20.3828125 8.99609375 C-19.20332031 8.50302734 -19.20332031 8.50302734 -18 8 C-15.29498067 9.35250966 -15.18243052 10.63661998 -14.125 13.4375 C-13.77953125 14.33210937 -13.4340625 15.22671875 -13.078125 16.1484375 C-12.359375 18.04947917 -11.640625 19.95052083 -10.921875 21.8515625 C-10.57640625 22.74617187 -10.2309375 23.64078125 -9.875 24.5625 C-9.56304688 25.38878906 -9.25109375 26.21507812 -8.9296875 27.06640625 C-8.15834004 29.17595688 -8.15834004 29.17595688 -6 30 C-6 30.66 -6 31.32 -6 32 C-5.01 31.01 -4.02 30.02 -3 29 C-3.7425 28.0925 -4.485 27.185 -5.25 26.25 C-8.90594485 21.14212276 -12.09925592 14.22219409 -11.94921875 7.83984375 C-10.47542493 4.98323103 -8.2593689 4.17715209 -5.4375 2.75 C-4.42558594 2.22921875 -3.41367187 1.7084375 -2.37109375 1.171875 C-1.19740234 0.59179688 -1.19740234 0.59179688 0 0 Z " fill="#FAFDFF" transform="translate(960,973)"/>
<path d="M0 0 C4.01317653 -0.50164707 6.63092746 -0.80519194 10.171875 1.27734375 C15.35805545 5.57641439 19.13744084 10.30983454 20.375 17.0390625 C20.80220017 23.95436532 17.75149455 27.9419939 13.5 32.9375 C9.71947928 35.80878156 5.65096213 35.74946477 1.05078125 35.5546875 C-3.79762273 34.6731595 -7.5761953 32.53895509 -11 29 C-13.77815929 23.51491627 -14.12681939 17.50243348 -12.2421875 11.64453125 C-10.40086996 7.66467563 -9.13779234 5.73856821 -5 4 C-5 3.34 -5 2.68 -5 2 C-3.35 1.67 -1.7 1.34 0 1 C0 0.67 0 0.34 0 0 Z " fill="#212F3C" transform="translate(731,565)"/>
<path d="M0 0 C4.01317653 -0.50164707 6.63092746 -0.80519194 10.171875 1.27734375 C15.35805545 5.57641439 19.13744084 10.30983454 20.375 17.0390625 C20.80220017 23.95436532 17.75149455 27.9419939 13.5 32.9375 C9.71947928 35.80878156 5.65096213 35.74946477 1.05078125 35.5546875 C-3.79762273 34.6731595 -7.5761953 32.53895509 -11 29 C-13.77815929 23.51491627 -14.12681939 17.50243348 -12.2421875 11.64453125 C-10.40086996 7.66467563 -9.13779234 5.73856821 -5 4 C-5 3.34 -5 2.68 -5 2 C-3.35 1.67 -1.7 1.34 0 1 C0 0.67 0 0.34 0 0 Z M-6.75 7.6875 C-9.01134749 11.87099285 -9.3847549 16.11897603 -8.4375 20.75 C-6.38347495 23.96499573 -4.41147754 25.29426123 -1 27 C3.53622804 27.89459477 6.31716674 27.37935181 10.375 25.125 C13.84531393 22.59471598 13.84531393 22.59471598 15.37109375 18.86328125 C15.54487469 12.18804885 14.46504976 8.9966033 10 4 C3.75891974 0.87945987 -2.0934194 3.19722585 -6.75 7.6875 Z " fill="#F8FBFD" transform="translate(731,565)"/>
<path d="M0 0 C4.31415893 1.77702261 8.30407716 3.96285709 12.34375 6.2890625 C13.10631104 6.72001221 13.86887207 7.15096191 14.65454102 7.5949707 C15.36795654 8.01866943 16.08137207 8.44236816 16.81640625 8.87890625 C17.459729 9.25781006 18.10305176 9.63671387 18.76586914 10.02709961 C20.65071665 11.67448123 20.90751719 12.91827543 21.28125 15.3515625 C18.74423366 16.22234364 16.2031973 17.07325766 13.65625 17.9140625 C12.94339844 18.16091797 12.23054687 18.40777344 11.49609375 18.66210938 C7.12407823 20.08602269 3.77751609 20.94951606 -0.71875 19.3515625 C-6.22385259 13.56758979 -8.58992426 7.20993273 -8.71875 -0.6484375 C-5.55756086 -2.22903207 -3.27479103 -1.030596 0 0 Z " fill="#212F3C" transform="translate(579.71875,289.6484375)"/>
<path d="M0 0 C3.74806338 1.46696743 3.74806338 1.46696743 4.84375 3.78515625 C5.0603125 4.53667969 5.276875 5.28820312 5.5 6.0625 C8.64306851 14.63450504 14.56480707 21.76208072 20 29 C20.74507812 29.99386719 21.49015625 30.98773437 22.2578125 32.01171875 C24.42101219 34.76301266 26.66766391 37.39026556 29 40 C29.74612549 40.83797119 29.74612549 40.83797119 30.50732422 41.69287109 C40.65087433 52.90828343 52.18560655 61.05881614 65 69 C64.67 69.66 64.34 70.32 64 71 C46.26361228 64.36422874 31.39428582 50.69979536 20 36 C19.15427887 34.93179017 18.30790709 33.86409521 17.4609375 32.796875 C-0.8670015 9.53701653 -0.8670015 9.53701653 0 0 Z " fill="#212F3C" transform="translate(821,932)"/>
<path d="M0 0 C7.52218389 1.13692059 13.67650673 5.81356979 18.33984375 11.7109375 C19.16162109 12.84402344 19.16162109 12.84402344 20 14 C20.55905029 14.76812012 20.55905029 14.76812012 21.12939453 15.55175781 C30.86905091 29.09364816 36.72580793 42.46645768 39 59 C39.24943359 60.74023438 39.24943359 60.74023438 39.50390625 62.515625 C40.34201018 69.96151675 39.50241078 75.9451809 37 83 C36.01 82.01 36.01 82.01 35 81 C35.30817206 78.65789236 35.82093403 76.52287263 36.5859375 74.2890625 C39.55027118 57.90133103 30.56851346 35.8004546 21.79296875 22.70703125 C15.94816058 14.69157883 10.228288 7.89352635 1.50390625 3.04296875 C1.00761719 2.69878906 0.51132812 2.35460937 0 2 C0 1.34 0 0.68 0 0 Z " fill="#24323F" transform="translate(885,1002)"/>
<path d="M0 0 C1.93462886 2.90194329 2.30707897 3.87346845 2.66796875 7.16015625 C2.80041992 8.3502832 2.80041992 8.3502832 2.93554688 9.56445312 C3.06026367 10.80098633 3.06026367 10.80098633 3.1875 12.0625 C3.28224609 12.89072266 3.37699219 13.71894531 3.47460938 14.57226562 C4.13167547 20.73664906 4.13167547 20.73664906 3 23 C2.896875 23.7425 2.79375 24.485 2.6875 25.25 C1.49189523 30.0324191 -0.94180517 33.11406945 -4.6875 36.25 C-12.02811404 40.12806025 -19.47689655 40.29766819 -27.625 39.875 C-28.97851562 39.84019531 -28.97851562 39.84019531 -30.359375 39.8046875 C-36.32768029 39.52628259 -40.10619504 38.47683194 -45 35 C-45.33 34.34 -45.66 33.68 -46 33 C-43.45195526 33.43680767 -41.23691844 33.88812185 -38.890625 34.99609375 C-34.9183785 36.37564422 -31.11563652 36.50202986 -26.9375 36.6875 C-26.13505859 36.73455078 -25.33261719 36.78160156 -24.50585938 36.83007812 C-18.39516547 37.13941616 -13.77934036 36.13584318 -8 34 C-7.34 33.34 -6.68 32.68 -6 32 C-5.319375 31.505 -4.63875 31.01 -3.9375 30.5 C0.83629335 24.34026665 -0.91908627 14.11324529 -1.03613281 6.6262207 C-1.05901015 4.75091467 -1.03382441 2.87514053 -1 1 C-0.67 0.67 -0.34 0.34 0 0 Z " fill="#F6FAFC" transform="translate(919,1055)"/>
<path d="M0 0 C2.4375 2.0625 2.4375 2.0625 4 5 C3.9375 8.6875 3.9375 8.6875 3 12 C0 14 0 14 -2.4375 13.8125 C-5.34091082 12.89190633 -6.95057802 12.27713553 -9 10 C-9.43386742 6.52906068 -9.66235303 4.14071911 -7.875 1.0625 C-5.0300175 -0.54965675 -3.2088071 -0.52388687 0 0 Z " fill="#FAFDFF" transform="translate(737,574)"/>
<path d="M0 0 C0.99 0.66 1.98 1.32 3 2 C3 2.66 3 3.32 3 4 C3.61875 4.0825 4.2375 4.165 4.875 4.25 C7 5 7 5 8.1328125 7.046875 C8.41898438 7.69140625 8.70515625 8.3359375 9 9 C8.45472656 9.10376953 7.90945313 9.20753906 7.34765625 9.31445312 C1.60988268 10.48652824 -3.5999555 12.25935654 -9 14.5 C-14.93587215 16.96297473 -20.67822289 18.79691949 -27 20 C-26.34 19.67 -25.68 19.34 -25 19 C-25 17.68 -25 16.36 -25 15 C-22.36 15.33 -19.72 15.66 -17 16 C-17 15.34 -17 14.68 -17 14 C-17.66 14 -18.32 14 -19 14 C-19 13.34 -19 12.68 -19 12 C-18.01 12.33 -17.02 12.66 -16 13 C-16 13.66 -16 14.32 -16 15 C-13.52733235 14.65555119 -13.52733235 14.65555119 -11 14 C-10.67 13.34 -10.34 12.68 -10 12 C-7.37383124 10.82513503 -4.72955415 9.90985138 -2 9 C-1.01 8.34 -0.02 7.68 1 7 C1 4.57202689 0.49914315 2.37092995 0 0 Z " fill="#FAFDFF" transform="translate(952,960)"/>
<path d="M0 0 C4.20969919 1.50346399 5.91860139 4.14555814 8 8 C7.75 10.375 7.75 10.375 7 12 C5.3125 12.75 5.3125 12.75 3 13 C0.25 11.5 0.25 11.5 -2 9 C-2.4375 5.375 -2.4375 5.375 -2 2 C-1.34 1.34 -0.68 0.68 0 0 Z " fill="#FAFDFF" transform="translate(890,1044)"/>
<path d="M0 0 C0.66 0.33 1.32 0.66 2 1 C-0.7534688 3.77834378 -3.51033037 6.55327272 -6.27026367 9.32519531 C-7.66567283 10.72805627 -9.05844418 12.13353942 -10.45117188 13.5390625 C-11.33740234 14.42851563 -12.22363281 15.31796875 -13.13671875 16.234375 C-14.35427856 17.45979004 -14.35427856 17.45979004 -15.59643555 18.70996094 C-17.96242961 20.96420413 -20.41825948 22.99889996 -23 25 C-23.66 24.67 -24.32 24.34 -25 24 C-22.2465312 21.22165622 -19.48966963 18.44672728 -16.72973633 15.67480469 C-15.33432717 14.27194373 -13.94155582 12.86646058 -12.54882812 11.4609375 C-11.66259766 10.57148437 -10.77636719 9.68203125 -9.86328125 8.765625 C-9.05157471 7.94868164 -8.23986816 7.13173828 -7.40356445 6.29003906 C-5.03757039 4.03579587 -2.58174052 2.00110004 0 0 Z " fill="#FAFDFF" transform="translate(927,944)"/>
<path d="M0 0 C6.04850291 4.49760473 13.38962229 11.05325002 15.76171875 18.33984375 C15.84035156 18.88769531 15.91898438 19.43554688 16 20 C14 20 14 20 12.5546875 18.56640625 C12.00039063 17.90511719 11.44609375 17.24382813 10.875 16.5625 C10.26269531 15.84191406 9.65039062 15.12132812 9.01953125 14.37890625 C8.35308594 13.59386719 7.68664062 12.80882812 7 12 C5.52513976 10.3295213 4.04606525 8.66275253 2.5625 7 C1.88316406 6.236875 1.20382812 5.47375 0.50390625 4.6875 C0.00761719 4.130625 -0.48867188 3.57375 -1 3 C-0.67 2.01 -0.34 1.02 0 0 Z " fill="#2C3A47" transform="translate(864,869)"/>
<path d="M0 0 C2.58409041 0.44298693 4.83680275 0.92639005 7.234375 2.0078125 C11.63410875 3.58624805 16.08617896 3.45832141 20.72265625 3.65625 C23.79824309 3.97883837 25.35413611 4.55778288 28 6 C24.81281557 6.117292 21.62619432 6.18760766 18.4375 6.25 C17.09461914 6.30027344 17.09461914 6.30027344 15.72460938 6.3515625 C9.58369384 6.44153928 6.0049954 5.6277819 1 2 C0.67 1.34 0.34 0.68 0 0 Z " fill="#EDF1F4" transform="translate(873,1088)"/>
<path d="M0 0 C2.625 0.375 2.625 0.375 5 1 C5.33 2.98 5.66 4.96 6 7 C4.3125 8.1875 4.3125 8.1875 2 9 C-0.75 7.625 -0.75 7.625 -3 6 C-2.42655063 3.13275314 -2.1385485 2.1385485 0 0 Z " fill="#FAFDFF" transform="translate(871,1021)"/>
<path d="M0 0 C2.3125 -0.25 2.3125 -0.25 5 0 C6.875 1.6875 6.875 1.6875 8 4 C7.6875 6.75 7.6875 6.75 7 9 C2.25 8.125 2.25 8.125 0 7 C0 4.69 0 2.38 0 0 Z " fill="#FAFDFF" transform="translate(844,999)"/>
<path d="M0 0 C0.33 0.99 0.66 1.98 1 3 C0.34 3 -0.32 3 -1 3 C-0.938125 3.94875 -0.87625 4.8975 -0.8125 5.875 C-0.874375 6.90625 -0.93625 7.9375 -1 9 C-4 11 -4 11 -7 11 C-7.6875 8.6875 -7.6875 8.6875 -8 6 C-6.6875 4.1875 -6.6875 4.1875 -5 3 C-4.34 3 -3.68 3 -3 3 C-2.67 2.34 -2.34 1.68 -2 1 C-1.34 1.33 -0.68 1.66 0 2 C0 1.34 0 0.68 0 0 Z " fill="#ECF0F2" transform="translate(818,472)"/>
<path d="M0 0 C4.85963179 0.60745397 8.7405518 2.72758967 13 5 C13 5.66 13 6.32 13 7 C14.32 7.66 15.64 8.32 17 9 C12.40191871 8.46105575 9.13215631 7.23428472 5.125 4.9375 C4.15820312 4.38964844 3.19140625 3.84179688 2.1953125 3.27734375 C1.47085937 2.85582031 0.74640625 2.43429687 0 2 C0 1.34 0 0.68 0 0 Z " fill="#FAFDFF" transform="translate(371,418)"/>
<path d="M0 0 C4.38081466 4.02561348 7.78693637 7.73302438 8.1875 13.875 C8.125625 14.57625 8.06375 15.2775 8 16 C4.2579175 13.68085223 3.13679391 11.57036596 1.75 7.4375 C1.41484375 6.46683594 1.0796875 5.49617187 0.734375 4.49609375 C0 2 0 2 0 0 Z " fill="#77838F" transform="translate(955,943)"/>
<path d="M0 0 C4.64973854 0.44787324 6.37027468 2.02185597 9.3125 5.5625 C10.00988281 6.38878906 10.70726562 7.21507812 11.42578125 8.06640625 C11.94527344 8.70449219 12.46476563 9.34257813 13 10 C12.67 10.66 12.34 11.32 12 12 C9.99092002 10.57391198 7.99330486 9.13533968 6 7.6875 C5.42765625 7.28337891 4.8553125 6.87925781 4.265625 6.46289062 C2.78791356 5.38099475 1.38745891 4.19544451 0 3 C0 2.01 0 1.02 0 0 Z " fill="#FAFDFF" transform="translate(655,540)"/>
<path d="M0 0 C0.99 0.33 1.98 0.66 3 1 C3 1.66 3 2.32 3 3 C4.11375 3.185625 4.11375 3.185625 5.25 3.375 C10.57636317 4.58553708 12.74947629 6.58857496 16 11 C9.83643195 9.3341708 4.51740344 6.12194714 -1 3 C-0.67 2.01 -0.34 1.02 0 0 Z " fill="#F7FAFC" transform="translate(917,916)"/>
<path d="M0 0 C2.80802472 4.21203708 1.8685895 7.17892987 1 12 C0.42391859 14.3779601 -0.25530967 16.66663695 -1 19 C-1.66 18.34 -2.32 17.68 -3 17 C-2.68673461 14.61918305 -2.12663988 12.42213293 -1.4375 10.125 C-0.87606748 7.75963692 -0.87606748 7.75963692 -1 4.3125 C-1 1 -1 1 0 0 Z " fill="#283643" transform="translate(923,1066)"/>
<path d="M0 0 C4.84659077 0.59104765 8.60748167 1.97944157 13 4 C13 4.66 13 5.32 13 6 C14.65 6 16.3 6 18 6 C18 6.33 18 6.66 18 7 C11.65411291 6.70620893 6.33666392 5.60769372 1 2 C0.67 1.34 0.34 0.68 0 0 Z " fill="#B0B9C3" transform="translate(744,318)"/>
<path d="M0 0 C1.485 0.99 1.485 0.99 3 2 C3 2.66 3 3.32 3 4 C3.61875 4.0825 4.2375 4.165 4.875 4.25 C7 5 7 5 8.25 7.0625 C8.4975 7.701875 8.745 8.34125 9 9 C6.36 9.33 3.72 9.66 1 10 C1.20625 9.46375 1.4125 8.9275 1.625 8.375 C2.1314747 5.16732692 1.15400225 2.98682934 0 0 Z " fill="#EFF3F6" transform="translate(952,960)"/>
<path d="M0 0 C0.33 0.99 0.66 1.98 1 3 C-8.22551253 13.74259681 -8.22551253 13.74259681 -14 17 C-14.66 16.67 -15.32 16.34 -16 16 C-15.26394531 15.43152344 -14.52789063 14.86304688 -13.76953125 14.27734375 C-8.25617823 9.9147302 -3.70099298 5.99816104 0 0 Z " fill="#FAFDFF" transform="translate(945,927)"/>
<path d="M0 0 C3.20148213 2.13432142 3.52206739 2.68419896 4.6875 6.125 C4.93886719 6.84945313 5.19023438 7.57390625 5.44921875 8.3203125 C5.72185547 9.15175781 5.72185547 9.15175781 6 10 C0.00274725 7.89285714 0.00274725 7.89285714 -2 5 C-1.74853421 2.86254078 -1.54074221 1.54074221 0 0 Z " fill="#FAFDFF" transform="translate(860,378)"/>
<path d="M0 0 C4.69165109 2.97519337 8.84703191 6.31393365 13 10 C9.21594911 10 7.88967353 8.8321967 4.8125 6.6875 C3.46091797 5.76517578 3.46091797 5.76517578 2.08203125 4.82421875 C1.39496094 4.22222656 0.70789063 3.62023437 0 3 C0 2.01 0 1.02 0 0 Z " fill="#FAFDFF" transform="translate(472,796)"/>
<path d="M0 0 C-1.41519715 2.0343459 -2.54982123 2.90410393 -4.98046875 3.421875 C-6.98176954 3.66273952 -8.9909944 3.83532741 -11 4 C-11 3.01 -11 2.02 -11 1 C-6.87831311 -0.62950412 -4.29299643 -1.26264601 0 0 Z " fill="#FAFDFF" transform="translate(655,317)"/>
<path d="M0 0 C3.78527521 0.51152368 5.44108688 1.20845842 8 4 C8.99 4.33 9.98 4.66 11 5 C12.6875 6.4375 12.6875 6.4375 14 8 C14 8.66 14 9.32 14 10 C10.94185543 8.54440716 8.13706343 6.86747996 5.3125 5 C4.52488281 4.484375 3.73726563 3.96875 2.92578125 3.4375 C1 2 1 2 0 0 Z " fill="#DFE4E9" transform="translate(508,810)"/>
<path d="M0 0 C2.57737166 1.03094867 3.76284247 1.5108626 5 4.0625 C5.8295822 6.21280279 5.8295822 6.21280279 8.125 6.75 C8.74375 6.8325 9.3625 6.915 10 7 C9.67 7.99 9.34 8.98 9 10 C7.67823515 9.09674384 6.36784934 8.17682097 5.0625 7.25 C4.33160156 6.73953125 3.60070312 6.2290625 2.84765625 5.703125 C0.79194601 3.80822085 0.37330824 2.72574271 0 0 Z " fill="#273542" transform="translate(879,887)"/>
<path d="M0 0 C1.65 0 3.3 0 5 0 C5 0.66 5 1.32 5 2 C5.969375 2.12375 6.93875 2.2475 7.9375 2.375 C9.4534375 2.684375 9.4534375 2.684375 11 3 C11.33 3.66 11.66 4.32 12 5 C13.64363134 5.72159424 15.31050386 6.39351421 17 7 C14 8 14 8 10.64453125 6.56640625 C9.3619696 5.90851193 8.08475943 5.24010257 6.8125 4.5625 C6.15830078 4.22412109 5.50410156 3.88574219 4.83007812 3.53710938 C3.21540701 2.70030902 1.60707237 1.85130254 0 1 C0 0.67 0 0.34 0 0 Z " fill="#E9EEF1" transform="translate(464,292)"/>
<path d="M0 0 C0.33 0 0.66 0 1 0 C1.33 2.31 1.66 4.62 2 7 C-1.79692186 9.82561627 -4.18569279 11.56638908 -9 11 C-8 9 -8 9 -5.0625 7.75 C-1.73051131 6.25274015 -1.73051131 6.25274015 -0.625 2.8125 C-0.41875 1.884375 -0.2125 0.95625 0 0 Z " fill="#D7DDE1" transform="translate(975,1000)"/>
<path d="M0 0 C1.32 0 2.64 0 4 0 C6 3 6 3 6 6 C6.66 6.33 7.32 6.66 8 7 C4.65980694 6.40353695 2.49529367 5.31705841 0 3 C0 2.01 0 1.02 0 0 Z " fill="#FAFDFF" transform="translate(801,365)"/>
<path d="M0 0 C4.03174806 0.27489191 5.56894631 0.53491576 8.375 3.5625 C8.91125 4.366875 9.4475 5.17125 10 6 C6.05879291 5.43697042 3.2491277 4.3208055 0 2 C0 1.34 0 0.68 0 0 Z " fill="#FAFDFF" transform="translate(637,872)"/>
</svg>
